<?xml version="1.0" encoding="UTF-8" standalone="no"?>
<!DOCTYPE svg PUBLIC "-//W3C//DTD SVG 1.1//EN"
 "http://www.w3.org/Graphics/SVG/1.1/DTD/svg11.dtd">
<!-- Generated by graphviz version 14.0.2 (0)
 -->
<!-- Title: ros Pages: 1 -->
<svg width="2804pt" height="419pt"
 viewBox="0.00 0.00 2804.00 419.00" xmlns="http://www.w3.org/2000/svg" xmlns:xlink="http://www.w3.org/1999/xlink">
<g id="graph0" class="graph" transform="scale(1 1) rotate(0) translate(4 415.31)">
<title>ros</title>
<polygon fill="white" stroke="none" points="-4,4 -4,-415.31 2800.45,-415.31 2800.45,4 -4,4"/>
<!-- TeleopNode -->
<g id="node1" class="node">
<title>TeleopNode</title>
<polygon fill="none" stroke="black" points="1445.13,-232 1345.13,-232 1345.13,-196 1445.13,-196 1445.13,-232"/>
<text xml:space="preserve" text-anchor="middle" x="1395.13" y="-209.32" font-family="Times,serif" font-size="14.00">TeleopNode</text>
</g>
<!-- /cmd_vel -->
<g id="node14" class="node">
<title>/cmd_vel</title>
<ellipse fill="none" stroke="black" cx="1596.05" cy="-168" rx="54.89" ry="18"/>
<text xml:space="preserve" text-anchor="middle" x="1596.05" y="-163.32" font-family="Times,serif" font-size="14.00">/cmd_vel</text>
</g>
<!-- TeleopNode&#45;&gt;/cmd_vel -->
<g id="edge3" class="edge">
<title>TeleopNode&#45;&gt;/cmd_vel</title>
<path fill="none" stroke="black" d="M1445.56,-202.57C1474.03,-195.99 1509.89,-187.69 1539.35,-180.88"/>
<polygon fill="black" stroke="black" points="1539.87,-184.35 1548.82,-178.69 1538.29,-177.53 1539.87,-184.35"/>
</g>
<!-- /camera_tilt -->
<g id="node16" class="node">
<title>/camera_tilt</title>
<ellipse fill="none" stroke="black" cx="1596.05" cy="-252" rx="70.67" ry="18"/>
<text xml:space="preserve" text-anchor="middle" x="1596.05" y="-247.32" font-family="Times,serif" font-size="14.00">/camera_tilt</text>
</g>
<!-- TeleopNode&#45;&gt;/camera_tilt -->
<g id="edge10" class="edge">
<title>TeleopNode&#45;&gt;/camera_tilt</title>
<path fill="none" stroke="black" d="M1445.56,-223.44C1470.23,-228.15 1500.45,-233.93 1527.24,-239.05"/>
<polygon fill="black" stroke="black" points="1526.53,-242.47 1537,-240.91 1527.84,-235.6 1526.53,-242.47"/>
</g>
<!-- CleanTeleopNode -->
<g id="node2" class="node">
<title>CleanTeleopNode</title>
<polygon fill="none" stroke="black" points="1047.55,-201 907.05,-201 907.05,-165 1047.55,-165 1047.55,-201"/>
<text xml:space="preserve" text-anchor="middle" x="977.3" y="-178.32" font-family="Times,serif" font-size="14.00">CleanTeleopNode</text>
</g>
<!-- CleanTeleopNode&#45;&gt;/cmd_vel -->
<g id="edge4" class="edge">
<title>CleanTeleopNode&#45;&gt;/cmd_vel</title>
<path fill="none" stroke="black" d="M1047.92,-186.02C1059.81,-186.43 1072.03,-186.78 1083.55,-187 1164.13,-188.53 1184.32,-189.32 1264.88,-187 1357.52,-184.34 1464.6,-177.48 1531.08,-172.77"/>
<polygon fill="black" stroke="black" points="1530.96,-176.29 1540.69,-172.09 1530.47,-169.31 1530.96,-176.29"/>
</g>
<!-- /cmd_vel_teleop -->
<g id="node15" class="node">
<title>/cmd_vel_teleop</title>
<ellipse fill="none" stroke="black" cx="1174.21" cy="-160" rx="90.67" ry="18"/>
<text xml:space="preserve" text-anchor="middle" x="1174.21" y="-155.32" font-family="Times,serif" font-size="14.00">/cmd_vel_teleop</text>
</g>
<!-- CleanTeleopNode&#45;&gt;/cmd_vel_teleop -->
<g id="edge8" class="edge">
<title>CleanTeleopNode&#45;&gt;/cmd_vel_teleop</title>
<path fill="none" stroke="black" d="M1047.84,-174.79C1059.64,-173.4 1072.04,-171.94 1084.26,-170.5"/>
<polygon fill="black" stroke="black" points="1084.39,-174.01 1093.91,-169.36 1083.57,-167.05 1084.39,-174.01"/>
</g>
<!-- CleanTeleopNode&#45;&gt;/camera_tilt -->
<g id="edge11" class="edge">
<title>CleanTeleopNode&#45;&gt;/camera_tilt</title>
<path fill="none" stroke="black" d="M1047.93,-195.58C1059.81,-197.72 1072.04,-199.93 1083.55,-202 1180.13,-219.38 1203.31,-230.47 1300.88,-241 1372.6,-248.74 1454.67,-251.29 1513.86,-252.02"/>
<polygon fill="black" stroke="black" points="1513.47,-255.51 1523.5,-252.12 1513.54,-248.51 1513.47,-255.51"/>
</g>
<!-- ESP32BridgeNode -->
<g id="node3" class="node">
<title>ESP32BridgeNode</title>
<polygon fill="none" stroke="black" points="1852.23,-278 1702.73,-278 1702.73,-242 1852.23,-242 1852.23,-278"/>
<text xml:space="preserve" text-anchor="middle" x="1777.48" y="-255.32" font-family="Times,serif" font-size="14.00">ESP32BridgeNode</text>
</g>
<!-- /esp32_telemetry -->
<g id="node18" class="node">
<title>/esp32_telemetry</title>
<ellipse fill="none" stroke="black" cx="1986.26" cy="-298" rx="98.03" ry="18"/>
<text xml:space="preserve" text-anchor="middle" x="1986.26" y="-293.32" font-family="Times,serif" font-size="14.00">/esp32_telemetry</text>
</g>
<!-- ESP32BridgeNode&#45;&gt;/esp32_telemetry -->
<g id="edge16" class="edge">
<title>ESP32BridgeNode&#45;&gt;/esp32_telemetry</title>
<path fill="none" stroke="black" d="M1852.55,-273.61C1869.37,-276.7 1887.33,-280 1904.42,-283.14"/>
<polygon fill="black" stroke="black" points="1903.55,-286.54 1914.02,-284.91 1904.82,-279.66 1903.55,-286.54"/>
</g>
<!-- VideoStreamerNode -->
<g id="node4" class="node">
<title>VideoStreamerNode</title>
<polygon fill="none" stroke="black" points="625.61,-104 464.86,-104 464.86,-68 625.61,-68 625.61,-104"/>
<text xml:space="preserve" text-anchor="middle" x="545.23" y="-81.33" font-family="Times,serif" font-size="14.00">VideoStreamerNode</text>
</g>
<!-- SimpleAutonomousNode -->
<g id="node5" class="node">
<title>SimpleAutonomousNode</title>
<polygon fill="none" stroke="black" points="2796.45,-308 2604.95,-308 2604.95,-272 2796.45,-272 2796.45,-308"/>
<text xml:space="preserve" text-anchor="middle" x="2700.7" y="-285.32" font-family="Times,serif" font-size="14.00">SimpleAutonomousNode</text>
</g>
<!-- SimpleAutonomousNode&#45;&gt;/cmd_vel -->
<g id="edge6" class="edge">
<title>SimpleAutonomousNode&#45;&gt;/cmd_vel</title>
<path fill="none" stroke="black" d="M2679.69,-271.55C2655.41,-250.26 2612.31,-215.89 2568.95,-198 2422.9,-137.73 2376.55,-138 2218.54,-138 1985.26,-138 1985.26,-138 1985.26,-138 1869.85,-138 1735.71,-151.34 1659.15,-160.23"/>
<polygon fill="black" stroke="black" points="1658.86,-156.74 1649.33,-161.39 1659.67,-163.7 1658.86,-156.74"/>
</g>
<!-- ArucoFollowerNode -->
<g id="node6" class="node">
<title>ArucoFollowerNode</title>
<polygon fill="none" stroke="black" points="623.36,-158 467.11,-158 467.11,-122 623.36,-122 623.36,-158"/>
<text xml:space="preserve" text-anchor="middle" x="545.23" y="-135.32" font-family="Times,serif" font-size="14.00">ArucoFollowerNode</text>
</g>
<!-- ArucoFollowerNode&#45;&gt;/cmd_vel -->
<g id="edge1" class="edge">
<title>ArucoFollowerNode&#45;&gt;/cmd_vel</title>
<path fill="none" stroke="black" d="M620.01,-121.55C634.02,-118.42 648.59,-115.4 662.36,-113 800.76,-88.83 835.8,-76 976.3,-76 976.3,-76 976.3,-76 1175.21,-76 1315.1,-76 1357.16,-49.35 1489.38,-95 1519.17,-105.29 1548.28,-126.47 1568.38,-143.38"/>
<polygon fill="black" stroke="black" points="1565.95,-145.91 1575.81,-149.8 1570.53,-140.61 1565.95,-145.91"/>
</g>
<!-- /obstacle_detected -->
<g id="node17" class="node">
<title>/obstacle_detected</title>
<ellipse fill="none" stroke="black" cx="766.7" cy="-140" rx="104.35" ry="18"/>
<text xml:space="preserve" text-anchor="middle" x="766.7" y="-135.32" font-family="Times,serif" font-size="14.00">/obstacle_detected</text>
</g>
<!-- ArucoFollowerNode&#45;&gt;/obstacle_detected -->
<g id="edge13" class="edge">
<title>ArucoFollowerNode&#45;&gt;/obstacle_detected</title>
<path fill="none" stroke="black" d="M623.61,-140C632.47,-140 641.64,-140 650.86,-140"/>
<polygon fill="black" stroke="black" points="650.6,-143.5 660.6,-140 650.6,-136.5 650.6,-143.5"/>
</g>
<!-- AutonomousFirebotNode -->
<g id="node7" class="node">
<title>AutonomousFirebotNode</title>
<polygon fill="none" stroke="black" points="2314.79,-224 2120.29,-224 2120.29,-188 2314.79,-188 2314.79,-224"/>
<text xml:space="preserve" text-anchor="middle" x="2217.54" y="-201.32" font-family="Times,serif" font-size="14.00">AutonomousFirebotNode</text>
</g>
<!-- AutonomousFirebotNode&#45;&gt;/cmd_vel -->
<g id="edge2" class="edge">
<title>AutonomousFirebotNode&#45;&gt;/cmd_vel</title>
<path fill="none" stroke="black" d="M2120,-200.08C1992.43,-192.25 1771.14,-178.68 1661.89,-171.98"/>
<polygon fill="black" stroke="black" points="1662.11,-168.48 1651.92,-171.37 1661.69,-175.47 1662.11,-168.48"/>
</g>
<!-- /water_pump -->
<g id="node19" class="node">
<title>/water_pump</title>
<ellipse fill="none" stroke="black" cx="2459.87" cy="-225" rx="76.46" ry="18"/>
<text xml:space="preserve" text-anchor="middle" x="2459.87" y="-220.32" font-family="Times,serif" font-size="14.00">/water_pump</text>
</g>
<!-- AutonomousFirebotNode&#45;&gt;/water_pump -->
<g id="edge20" class="edge">
<title>AutonomousFirebotNode&#45;&gt;/water_pump</title>
<path fill="none" stroke="black" d="M2315.26,-213.65C2335.21,-215.22 2356.06,-216.87 2375.49,-218.41"/>
<polygon fill="black" stroke="black" points="2375,-221.88 2385.24,-219.18 2375.55,-214.9 2375,-221.88"/>
</g>
<!-- CameraNode -->
<g id="node8" class="node">
<title>CameraNode</title>
<polygon fill="none" stroke="black" points="142,-81 33,-81 33,-45 142,-45 142,-81"/>
<text xml:space="preserve" text-anchor="middle" x="87.5" y="-58.33" font-family="Times,serif" font-size="14.00">CameraNode</text>
</g>
<!-- /camera/image_raw -->
<g id="node20" class="node">
<title>/camera/image_raw</title>
<ellipse fill="none" stroke="black" cx="319.55" cy="-90" rx="108.55" ry="18"/>
<text xml:space="preserve" text-anchor="middle" x="319.55" y="-85.33" font-family="Times,serif" font-size="14.00">/camera/image_raw</text>
</g>
<!-- CameraNode&#45;&gt;/camera/image_raw -->
<g id="edge22" class="edge">
<title>CameraNode&#45;&gt;/camera/image_raw</title>
<path fill="none" stroke="black" d="M142.44,-69.33C165.21,-72 192.49,-75.2 218.7,-78.28"/>
<polygon fill="black" stroke="black" points="218.01,-81.72 228.35,-79.41 218.82,-74.77 218.01,-81.72"/>
</g>
<!-- /aruco/pose -->
<g id="node22" class="node">
<title>/aruco/pose</title>
<ellipse fill="none" stroke="black" cx="319.55" cy="-36" rx="68.57" ry="18"/>
<text xml:space="preserve" text-anchor="middle" x="319.55" y="-31.32" font-family="Times,serif" font-size="14.00">/aruco/pose</text>
</g>
<!-- CameraNode&#45;&gt;/aruco/pose -->
<g id="edge29" class="edge">
<title>CameraNode&#45;&gt;/aruco/pose</title>
<path fill="none" stroke="black" d="M142.44,-56.67C173.1,-53.07 211.93,-48.51 245.32,-44.6"/>
<polygon fill="black" stroke="black" points="245.38,-48.11 254.91,-43.47 244.57,-41.16 245.38,-48.11"/>
</g>
<!-- LidarOdometryNode -->
<g id="node9" class="node">
<title>LidarOdometryNode</title>
<polygon fill="none" stroke="black" points="626.36,-400 464.11,-400 464.11,-364 626.36,-364 626.36,-400"/>
<text xml:space="preserve" text-anchor="middle" x="545.23" y="-377.32" font-family="Times,serif" font-size="14.00">LidarOdometryNode</text>
</g>
<!-- MPU6050NodeRobust -->
<g id="node10" class="node">
<title>MPU6050NodeRobust</title>
<polygon fill="none" stroke="black" points="175,-411 0,-411 0,-375 175,-375 175,-411"/>
<text xml:space="preserve" text-anchor="middle" x="87.5" y="-388.32" font-family="Times,serif" font-size="14.00">MPU6050NodeRobust</text>
</g>
<!-- /imu/mpu6050 -->
<g id="node24" class="node">
<title>/imu/mpu6050</title>
<ellipse fill="none" stroke="black" cx="319.55" cy="-393" rx="83.83" ry="18"/>
<text xml:space="preserve" text-anchor="middle" x="319.55" y="-388.32" font-family="Times,serif" font-size="14.00">/imu/mpu6050</text>
</g>
<!-- MPU6050NodeRobust&#45;&gt;/imu/mpu6050 -->
<g id="edge35" class="edge">
<title>MPU6050NodeRobust&#45;&gt;/imu/mpu6050</title>
<path fill="none" stroke="black" d="M175.47,-393C191.39,-393 208.08,-393 224.2,-393"/>
<polygon fill="black" stroke="black" points="223.75,-396.5 233.75,-393 223.75,-389.5 223.75,-396.5"/>
</g>
<!-- ObstacleAvoidanceNode -->
<g id="node11" class="node">
<title>ObstacleAvoidanceNode</title>
<polygon fill="none" stroke="black" points="1489.38,-140 1300.88,-140 1300.88,-104 1489.38,-104 1489.38,-140"/>
<text xml:space="preserve" text-anchor="middle" x="1395.13" y="-117.33" font-family="Times,serif" font-size="14.00">ObstacleAvoidanceNode</text>
</g>
<!-- ObstacleAvoidanceNode&#45;&gt;/cmd_vel -->
<g id="edge5" class="edge">
<title>ObstacleAvoidanceNode&#45;&gt;/cmd_vel</title>
<path fill="none" stroke="black" d="M1475.89,-140.44C1497.13,-145.36 1519.61,-150.55 1539.26,-155.1"/>
<polygon fill="black" stroke="black" points="1538.46,-158.5 1548.99,-157.35 1540.04,-151.68 1538.46,-158.5"/>
</g>
<!-- ObstacleAvoidanceNode&#45;&gt;/obstacle_detected -->
<g id="edge14" class="edge">
<title>ObstacleAvoidanceNode&#45;&gt;/obstacle_detected</title>
<path fill="none" stroke="black" d="M1300.44,-124.69C1188.57,-127.91 1001.57,-133.28 881.5,-136.73"/>
<polygon fill="black" stroke="black" points="881.5,-133.23 871.61,-137.01 881.7,-140.23 881.5,-133.23"/>
</g>
<!-- SensorFusionNode -->
<g id="node12" class="node">
<title>SensorFusionNode</title>
<polygon fill="none" stroke="black" points="2293.04,-354 2142.04,-354 2142.04,-318 2293.04,-318 2293.04,-354"/>
<text xml:space="preserve" text-anchor="middle" x="2217.54" y="-331.32" font-family="Times,serif" font-size="14.00">SensorFusionNode</text>
</g>
<!-- /sensor_fusion/pose -->
<g id="node23" class="node">
<title>/sensor_fusion/pose</title>
<ellipse fill="none" stroke="black" cx="2459.87" cy="-336" rx="109.08" ry="18"/>
<text xml:space="preserve" text-anchor="middle" x="2459.87" y="-331.32" font-family="Times,serif" font-size="14.00">/sensor_fusion/pose</text>
</g>
<!-- SensorFusionNode&#45;&gt;/sensor_fusion/pose -->
<g id="edge33" class="edge">
<title>SensorFusionNode&#45;&gt;/sensor_fusion/pose</title>
<path fill="none" stroke="black" d="M2293.27,-336C2307.9,-336 2323.59,-336 2339.27,-336"/>
<polygon fill="black" stroke="black" points="2339.16,-339.5 2349.16,-336 2339.16,-332.5 2339.16,-339.5"/>
</g>
<!-- LidarNode -->
<g id="node13" class="node">
<title>LidarNode</title>
<polygon fill="none" stroke="black" points="133,-342 42,-342 42,-306 133,-306 133,-342"/>
<text xml:space="preserve" text-anchor="middle" x="87.5" y="-319.32" font-family="Times,serif" font-size="14.00">LidarNode</text>
</g>
<!-- /scan -->
<g id="node21" class="node">
<title>/scan</title>
<ellipse fill="none" stroke="black" cx="319.55" cy="-324" rx="37" ry="18"/>
<text xml:space="preserve" text-anchor="middle" x="319.55" y="-319.32" font-family="Times,serif" font-size="14.00">/scan</text>
</g>
<!-- LidarNode&#45;&gt;/scan -->
<g id="edge24" class="edge">
<title>LidarNode&#45;&gt;/scan</title>
<path fill="none" stroke="black" d="M133.4,-324C172.92,-324 230.28,-324 270.66,-324"/>
<polygon fill="black" stroke="black" points="270.58,-327.5 280.58,-324 270.58,-320.5 270.58,-327.5"/>
</g>
<!-- /cmd_vel&#45;&gt;ESP32BridgeNode -->
<g id="edge7" class="edge">
<title>/cmd_vel&#45;&gt;ESP32BridgeNode</title>
<path fill="none" stroke="black" d="M1626.68,-183.19C1654.88,-197.65 1697.75,-219.63 1730.41,-236.38"/>
<polygon fill="black" stroke="black" points="1728.78,-239.48 1739.27,-240.92 1731.97,-233.25 1728.78,-239.48"/>
</g>
<!-- /cmd_vel_teleop&#45;&gt;ObstacleAvoidanceNode -->
<g id="edge9" class="edge">
<title>/cmd_vel_teleop&#45;&gt;ObstacleAvoidanceNode</title>
<path fill="none" stroke="black" d="M1243.88,-148.08C1258.31,-145.58 1273.84,-142.88 1289.25,-140.2"/>
<polygon fill="black" stroke="black" points="1289.69,-143.68 1298.94,-138.52 1288.49,-136.78 1289.69,-143.68"/>
</g>
<!-- /camera_tilt&#45;&gt;ESP32BridgeNode -->
<g id="edge12" class="edge">
<title>/camera_tilt&#45;&gt;ESP32BridgeNode</title>
<path fill="none" stroke="black" d="M1666.17,-255.08C1674.31,-255.44 1682.7,-255.82 1691.03,-256.19"/>
<polygon fill="black" stroke="black" points="1690.68,-259.68 1700.83,-256.63 1690.99,-252.68 1690.68,-259.68"/>
</g>
<!-- /obstacle_detected&#45;&gt;CleanTeleopNode -->
<g id="edge15" class="edge">
<title>/obstacle_detected&#45;&gt;CleanTeleopNode</title>
<path fill="none" stroke="black" d="M835.43,-153.96C854.61,-157.92 875.68,-162.26 895.55,-166.35"/>
<polygon fill="black" stroke="black" points="894.78,-169.77 905.28,-168.36 896.2,-162.91 894.78,-169.77"/>
</g>
<!-- /esp32_telemetry&#45;&gt;SimpleAutonomousNode -->
<g id="edge19" class="edge">
<title>/esp32_telemetry&#45;&gt;SimpleAutonomousNode</title>
<path fill="none" stroke="black" d="M2084.46,-296.91C2217.51,-295.41 2455.52,-292.74 2593.25,-291.2"/>
<polygon fill="black" stroke="black" points="2593.15,-294.7 2603.11,-291.08 2593.07,-287.7 2593.15,-294.7"/>
</g>
<!-- /esp32_telemetry&#45;&gt;AutonomousFirebotNode -->
<g id="edge18" class="edge">
<title>/esp32_telemetry&#45;&gt;AutonomousFirebotNode</title>
<path fill="none" stroke="black" d="M2028.78,-281.34C2065.51,-266.6 2119.41,-244.98 2160.05,-228.67"/>
<polygon fill="black" stroke="black" points="2161.22,-231.97 2169.2,-225 2158.62,-225.47 2161.22,-231.97"/>
</g>
<!-- /esp32_telemetry&#45;&gt;SensorFusionNode -->
<g id="edge17" class="edge">
<title>/esp32_telemetry&#45;&gt;SensorFusionNode</title>
<path fill="none" stroke="black" d="M2060.44,-310.13C2082.74,-313.82 2107.46,-317.92 2130.52,-321.74"/>
<polygon fill="black" stroke="black" points="2129.77,-325.17 2140.2,-323.35 2130.91,-318.26 2129.77,-325.17"/>
</g>
<!-- /water_pump&#45;&gt;ESP32BridgeNode -->
<g id="edge21" class="edge">
<title>/water_pump&#45;&gt;ESP32BridgeNode</title>
<path fill="none" stroke="black" d="M2385.21,-229.16C2362.62,-230.42 2337.68,-231.79 2314.79,-233 2155.58,-241.43 1969.74,-250.64 1863.91,-255.84"/>
<polygon fill="black" stroke="black" points="1863.99,-252.33 1854.17,-256.31 1864.33,-259.32 1863.99,-252.33"/>
</g>
<!-- /camera/image_raw&#45;&gt;VideoStreamerNode -->
<g id="edge23" class="edge">
<title>/camera/image_raw&#45;&gt;VideoStreamerNode</title>
<path fill="none" stroke="black" d="M427.81,-88.08C436.29,-87.93 444.8,-87.78 453.16,-87.63"/>
<polygon fill="black" stroke="black" points="452.98,-91.13 462.92,-87.45 452.86,-84.13 452.98,-91.13"/>
</g>
<!-- /scan&#45;&gt;SimpleAutonomousNode -->
<g id="edge28" class="edge">
<title>/scan&#45;&gt;SimpleAutonomousNode</title>
<path fill="none" stroke="black" d="M356.56,-326.19C533.8,-336.75 1331.34,-382 1985.26,-382 1985.26,-382 1985.26,-382 2218.54,-382 2374.51,-382 2419.13,-406.36 2568.95,-363 2604.23,-352.79 2640.38,-331.62 2665.71,-314.7"/>
<polygon fill="black" stroke="black" points="2667.66,-317.6 2673.94,-309.07 2663.71,-311.82 2667.66,-317.6"/>
</g>
<!-- /scan&#45;&gt;ArucoFollowerNode -->
<g id="edge25" class="edge">
<title>/scan&#45;&gt;ArucoFollowerNode</title>
<path fill="none" stroke="black" d="M339.24,-308.63C377.63,-277.05 465.73,-204.58 512.96,-165.72"/>
<polygon fill="black" stroke="black" points="515.17,-168.44 520.67,-159.38 510.72,-163.03 515.17,-168.44"/>
</g>
<!-- /scan&#45;&gt;AutonomousFirebotNode -->
<g id="edge27" class="edge">
<title>/scan&#45;&gt;AutonomousFirebotNode</title>
<path fill="none" stroke="black" d="M356.29,-320.49C431.8,-313.4 613.2,-298 765.7,-298 765.7,-298 765.7,-298 1396.13,-298 1516.69,-298 1560.26,-335.57 1666.73,-279 1689.65,-266.82 1679.7,-244.98 1702.73,-233 1737.69,-214.81 1968.61,-208.87 2108.71,-206.93"/>
<polygon fill="black" stroke="black" points="2108.42,-210.44 2118.37,-206.8 2108.33,-203.44 2108.42,-210.44"/>
</g>
<!-- /scan&#45;&gt;LidarOdometryNode -->
<g id="edge26" class="edge">
<title>/scan&#45;&gt;LidarOdometryNode</title>
<path fill="none" stroke="black" d="M352.6,-332.31C381.08,-339.69 423.95,-350.81 461.93,-360.66"/>
<polygon fill="black" stroke="black" points="461,-364.03 471.56,-363.15 462.75,-357.26 461,-364.03"/>
</g>
<!-- /aruco/pose&#45;&gt;SimpleAutonomousNode -->
<g id="edge32" class="edge">
<title>/aruco/pose&#45;&gt;SimpleAutonomousNode</title>
<path fill="none" stroke="black" d="M381.63,-27.92C467.3,-17.31 628.08,0 765.7,0 765.7,0 765.7,0 2218.54,0 2385.76,0 2432.68,-40.09 2568.95,-137 2617.93,-171.83 2660.13,-228.94 2682.54,-262.65"/>
<polygon fill="black" stroke="black" points="2679.36,-264.18 2687.75,-270.64 2685.22,-260.36 2679.36,-264.18"/>
</g>
<!-- /aruco/pose&#45;&gt;ArucoFollowerNode -->
<g id="edge30" class="edge">
<title>/aruco/pose&#45;&gt;ArucoFollowerNode</title>
<path fill="none" stroke="black" d="M382.01,-43.67C397.97,-47.67 414.49,-53.76 428.11,-63 450.76,-78.38 442.08,-96.74 464.11,-113 465.47,-114.01 466.88,-114.98 468.32,-115.92"/>
<polygon fill="black" stroke="black" points="466.51,-118.92 476.93,-120.86 470,-112.84 466.51,-118.92"/>
</g>
<!-- /aruco/pose&#45;&gt;AutonomousFirebotNode -->
<g id="edge31" class="edge">
<title>/aruco/pose&#45;&gt;AutonomousFirebotNode</title>
<path fill="none" stroke="black" d="M388.43,-36.49C475.72,-37.09 632,-38 765.7,-38 765.7,-38 765.7,-38 1778.48,-38 1936.79,-38 2107.22,-134.84 2180.12,-181.47"/>
<polygon fill="black" stroke="black" points="2178.17,-184.38 2188.47,-186.88 2181.98,-178.51 2178.17,-184.38"/>
</g>
<!-- /sensor_fusion/pose&#45;&gt;SimpleAutonomousNode -->
<g id="edge34" class="edge">
<title>/sensor_fusion/pose&#45;&gt;SimpleAutonomousNode</title>
<path fill="none" stroke="black" d="M2532.53,-322.2C2551.75,-318.5 2572.94,-314.42 2593.59,-310.44"/>
<polygon fill="black" stroke="black" points="2594.02,-313.92 2603.18,-308.59 2592.7,-307.05 2594.02,-313.92"/>
</g>
<!-- /imu/mpu6050&#45;&gt;LidarOdometryNode -->
<g id="edge37" class="edge">
<title>/imu/mpu6050&#45;&gt;LidarOdometryNode</title>
<path fill="none" stroke="black" d="M401.62,-389.01C418.24,-388.2 435.84,-387.33 452.79,-386.5"/>
<polygon fill="black" stroke="black" points="452.49,-390.02 462.3,-386.03 452.14,-383.02 452.49,-390.02"/>
</g>
<!-- /imu/mpu6050&#45;&gt;SensorFusionNode -->
<g id="edge36" class="edge">
<title>/imu/mpu6050&#45;&gt;SensorFusionNode</title>
<path fill="none" stroke="black" d="M391.62,-402.5C414.69,-405.16 440.45,-407.69 464.11,-409 536.11,-413 554.26,-410.24 626.36,-409 1201.03,-399.1 1891.46,-357.11 2130.3,-341.7"/>
<polygon fill="black" stroke="black" points="2130.41,-345.2 2140.16,-341.06 2129.96,-338.21 2130.41,-345.2"/>
</g>
</g>
</svg>
