<?xml version="1.0" encoding="UTF-8" standalone="no"?>
<!DOCTYPE svg PUBLIC "-//W3C//DTD SVG 1.1//EN"
 "http://www.w3.org/Graphics/SVG/1.1/DTD/svg11.dtd">
<!-- Generated by graphviz version 14.0.2 (0)
 -->
<!-- Title: ros Pages: 1 -->
<svg width="2512pt" height="470pt"
 viewBox="0.00 0.00 2512.00 470.00" xmlns="http://www.w3.org/2000/svg" xmlns:xlink="http://www.w3.org/1999/xlink">
<g id="graph0" class="graph" transform="scale(1 1) rotate(0) translate(4 466)">
<title>ros</title>
<polygon fill="white" stroke="none" points="-4,4 -4,-466 2507.72,-466 2507.72,4 -4,4"/>
<!-- TeleopNode -->
<g id="node1" class="node">
<title>TeleopNode</title>
<polygon fill="none" stroke="black" points="1445.13,-328 1345.13,-328 1345.13,-292 1445.13,-292 1445.13,-328"/>
<text xml:space="preserve" text-anchor="middle" x="1395.13" y="-305.32" font-family="Times,serif" font-size="14.00">TeleopNode</text>
</g>
<!-- /cmd_vel -->
<g id="node15" class="node">
<title>/cmd_vel</title>
<ellipse fill="none" stroke="black" cx="1596.05" cy="-258" rx="54.89" ry="18"/>
<text xml:space="preserve" text-anchor="middle" x="1596.05" y="-253.32" font-family="Times,serif" font-size="14.00">/cmd_vel</text>
</g>
<!-- TeleopNode&#45;&gt;/cmd_vel -->
<g id="edge4" class="edge">
<title>TeleopNode&#45;&gt;/cmd_vel</title>
<path fill="none" stroke="black" d="M1445.56,-297.08C1474.64,-289.48 1511.43,-279.86 1541.24,-272.07"/>
<polygon fill="black" stroke="black" points="1542.04,-275.48 1550.83,-269.56 1540.27,-268.7 1542.04,-275.48"/>
</g>
<!-- /camera_tilt -->
<g id="node17" class="node">
<title>/camera_tilt</title>
<ellipse fill="none" stroke="black" cx="1596.05" cy="-312" rx="70.67" ry="18"/>
<text xml:space="preserve" text-anchor="middle" x="1596.05" y="-307.32" font-family="Times,serif" font-size="14.00">/camera_tilt</text>
</g>
<!-- TeleopNode&#45;&gt;/camera_tilt -->
<g id="edge11" class="edge">
<title>TeleopNode&#45;&gt;/camera_tilt</title>
<path fill="none" stroke="black" d="M1445.56,-310.5C1466.23,-310.7 1490.79,-310.95 1513.97,-311.18"/>
<polygon fill="black" stroke="black" points="1513.67,-314.68 1523.71,-311.28 1513.74,-307.68 1513.67,-314.68"/>
</g>
<!-- CleanTeleopNode -->
<g id="node2" class="node">
<title>CleanTeleopNode</title>
<polygon fill="none" stroke="black" points="1047.55,-293 907.05,-293 907.05,-257 1047.55,-257 1047.55,-293"/>
<text xml:space="preserve" text-anchor="middle" x="977.3" y="-270.32" font-family="Times,serif" font-size="14.00">CleanTeleopNode</text>
</g>
<!-- CleanTeleopNode&#45;&gt;/cmd_vel -->
<g id="edge6" class="edge">
<title>CleanTeleopNode&#45;&gt;/cmd_vel</title>
<path fill="none" stroke="black" d="M1047.92,-278.02C1059.81,-278.43 1072.03,-278.78 1083.55,-279 1164.13,-280.53 1184.33,-281.56 1264.88,-279 1357.68,-276.05 1464.93,-268.45 1531.38,-263.25"/>
<polygon fill="black" stroke="black" points="1531.29,-266.77 1540.99,-262.5 1530.74,-259.79 1531.29,-266.77"/>
</g>
<!-- /cmd_vel_teleop -->
<g id="node16" class="node">
<title>/cmd_vel_teleop</title>
<ellipse fill="none" stroke="black" cx="1174.21" cy="-252" rx="90.67" ry="18"/>
<text xml:space="preserve" text-anchor="middle" x="1174.21" y="-247.32" font-family="Times,serif" font-size="14.00">/cmd_vel_teleop</text>
</g>
<!-- CleanTeleopNode&#45;&gt;/cmd_vel_teleop -->
<g id="edge8" class="edge">
<title>CleanTeleopNode&#45;&gt;/cmd_vel_teleop</title>
<path fill="none" stroke="black" d="M1047.84,-266.79C1059.64,-265.4 1072.04,-263.94 1084.26,-262.5"/>
<polygon fill="black" stroke="black" points="1084.39,-266.01 1093.91,-261.36 1083.57,-259.05 1084.39,-266.01"/>
</g>
<!-- CleanTeleopNode&#45;&gt;/camera_tilt -->
<g id="edge10" class="edge">
<title>CleanTeleopNode&#45;&gt;/camera_tilt</title>
<path fill="none" stroke="black" d="M1046.07,-293.49C1143.91,-317.84 1330.47,-355.54 1489.38,-337 1505.05,-335.17 1521.77,-331.87 1537.18,-328.25"/>
<polygon fill="black" stroke="black" points="1537.77,-331.7 1546.66,-325.93 1536.11,-324.9 1537.77,-331.7"/>
</g>
<!-- ESP32BridgeNode -->
<g id="node3" class="node">
<title>ESP32BridgeNode</title>
<polygon fill="none" stroke="black" points="1852.23,-324 1702.73,-324 1702.73,-288 1852.23,-288 1852.23,-324"/>
<text xml:space="preserve" text-anchor="middle" x="1777.48" y="-301.32" font-family="Times,serif" font-size="14.00">ESP32BridgeNode</text>
</g>
<!-- /esp32_telemetry -->
<g id="node19" class="node">
<title>/esp32_telemetry</title>
<ellipse fill="none" stroke="black" cx="1986.26" cy="-176" rx="98.03" ry="18"/>
<text xml:space="preserve" text-anchor="middle" x="1986.26" y="-171.32" font-family="Times,serif" font-size="14.00">/esp32_telemetry</text>
</g>
<!-- ESP32BridgeNode&#45;&gt;/esp32_telemetry -->
<g id="edge16" class="edge">
<title>ESP32BridgeNode&#45;&gt;/esp32_telemetry</title>
<path fill="none" stroke="black" d="M1807.67,-287.65C1844.31,-264.62 1907.22,-225.06 1947.49,-199.74"/>
<polygon fill="black" stroke="black" points="1949.33,-202.72 1955.93,-194.44 1945.6,-196.8 1949.33,-202.72"/>
</g>
<!-- VideoStreamerNode -->
<g id="node4" class="node">
<title>VideoStreamerNode</title>
<polygon fill="none" stroke="black" points="625.61,-462 464.86,-462 464.86,-426 625.61,-426 625.61,-462"/>
<text xml:space="preserve" text-anchor="middle" x="545.23" y="-439.32" font-family="Times,serif" font-size="14.00">VideoStreamerNode</text>
</g>
<!-- SimpleAutonomousNode -->
<g id="node5" class="node">
<title>SimpleAutonomousNode</title>
<polygon fill="none" stroke="black" points="2313.29,-267 2121.79,-267 2121.79,-231 2313.29,-231 2313.29,-267"/>
<text xml:space="preserve" text-anchor="middle" x="2217.54" y="-244.32" font-family="Times,serif" font-size="14.00">SimpleAutonomousNode</text>
</g>
<!-- SimpleAutonomousNode&#45;&gt;/cmd_vel -->
<g id="edge3" class="edge">
<title>SimpleAutonomousNode&#45;&gt;/cmd_vel</title>
<path fill="none" stroke="black" d="M2121.42,-250.38C1994.29,-252.23 1772.29,-255.45 1662.45,-257.05"/>
<polygon fill="black" stroke="black" points="1662.68,-253.55 1652.73,-257.19 1662.78,-260.55 1662.68,-253.55"/>
</g>
<!-- ArucoFollowerNode -->
<g id="node6" class="node">
<title>ArucoFollowerNode</title>
<polygon fill="none" stroke="black" points="623.36,-213 467.11,-213 467.11,-177 623.36,-177 623.36,-213"/>
<text xml:space="preserve" text-anchor="middle" x="545.23" y="-190.32" font-family="Times,serif" font-size="14.00">ArucoFollowerNode</text>
</g>
<!-- ArucoFollowerNode&#45;&gt;/cmd_vel -->
<g id="edge1" class="edge">
<title>ArucoFollowerNode&#45;&gt;/cmd_vel</title>
<path fill="none" stroke="black" d="M623.83,-187.19C709.88,-179.22 852.86,-168 976.3,-168 976.3,-168 976.3,-168 1175.21,-168 1315.22,-168 1356.44,-147.08 1489.38,-191 1517.69,-200.35 1546.02,-218.94 1566.22,-234.17"/>
<polygon fill="black" stroke="black" points="1563.92,-236.81 1573.97,-240.17 1568.2,-231.28 1563.92,-236.81"/>
</g>
<!-- /obstacle_detected -->
<g id="node18" class="node">
<title>/obstacle_detected</title>
<ellipse fill="none" stroke="black" cx="766.7" cy="-214" rx="104.35" ry="18"/>
<text xml:space="preserve" text-anchor="middle" x="766.7" y="-209.32" font-family="Times,serif" font-size="14.00">/obstacle_detected</text>
</g>
<!-- ArucoFollowerNode&#45;&gt;/obstacle_detected -->
<g id="edge13" class="edge">
<title>ArucoFollowerNode&#45;&gt;/obstacle_detected</title>
<path fill="none" stroke="black" d="M623.61,-201.7C635.83,-202.76 648.63,-203.87 661.34,-204.97"/>
<polygon fill="black" stroke="black" points="660.7,-208.42 670.96,-205.8 661.3,-201.45 660.7,-208.42"/>
</g>
<!-- AutonomousFirebotNode -->
<g id="node7" class="node">
<title>AutonomousFirebotNode</title>
<polygon fill="none" stroke="black" points="2314.79,-148 2120.29,-148 2120.29,-112 2314.79,-112 2314.79,-148"/>
<text xml:space="preserve" text-anchor="middle" x="2217.54" y="-125.33" font-family="Times,serif" font-size="14.00">AutonomousFirebotNode</text>
</g>
<!-- AutonomousFirebotNode&#45;&gt;/cmd_vel -->
<g id="edge2" class="edge">
<title>AutonomousFirebotNode&#45;&gt;/cmd_vel</title>
<path fill="none" stroke="black" d="M2120,-128.02C2054.05,-128.51 1965.04,-132.79 1888.23,-149 1795.64,-168.54 1693.31,-212.44 1638,-238.16"/>
<polygon fill="black" stroke="black" points="1636.52,-234.99 1628.96,-242.41 1639.5,-241.33 1636.52,-234.99"/>
</g>
<!-- /water_pump -->
<g id="node20" class="node">
<title>/water_pump</title>
<ellipse fill="none" stroke="black" cx="2427.25" cy="-216" rx="76.46" ry="18"/>
<text xml:space="preserve" text-anchor="middle" x="2427.25" y="-211.32" font-family="Times,serif" font-size="14.00">/water_pump</text>
</g>
<!-- AutonomousFirebotNode&#45;&gt;/water_pump -->
<g id="edge21" class="edge">
<title>AutonomousFirebotNode&#45;&gt;/water_pump</title>
<path fill="none" stroke="black" d="M2290.85,-148.47C2299.01,-151.09 2307.14,-153.94 2314.79,-157 2340.13,-167.12 2367.21,-181.37 2388.33,-193.33"/>
<polygon fill="black" stroke="black" points="2386.46,-196.29 2396.88,-198.23 2389.94,-190.22 2386.46,-196.29"/>
</g>
<!-- CameraNode -->
<g id="node8" class="node">
<title>CameraNode</title>
<polygon fill="none" stroke="black" points="142,-435 33,-435 33,-399 142,-399 142,-435"/>
<text xml:space="preserve" text-anchor="middle" x="87.5" y="-412.32" font-family="Times,serif" font-size="14.00">CameraNode</text>
</g>
<!-- /camera/image_raw -->
<g id="node21" class="node">
<title>/camera/image_raw</title>
<ellipse fill="none" stroke="black" cx="319.55" cy="-444" rx="108.55" ry="18"/>
<text xml:space="preserve" text-anchor="middle" x="319.55" y="-439.32" font-family="Times,serif" font-size="14.00">/camera/image_raw</text>
</g>
<!-- CameraNode&#45;&gt;/camera/image_raw -->
<g id="edge23" class="edge">
<title>CameraNode&#45;&gt;/camera/image_raw</title>
<path fill="none" stroke="black" d="M142.44,-423.33C165.21,-426 192.49,-429.2 218.7,-432.28"/>
<polygon fill="black" stroke="black" points="218.01,-435.72 228.35,-433.41 218.82,-428.77 218.01,-435.72"/>
</g>
<!-- /aruco/pose -->
<g id="node23" class="node">
<title>/aruco/pose</title>
<ellipse fill="none" stroke="black" cx="319.55" cy="-390" rx="68.57" ry="18"/>
<text xml:space="preserve" text-anchor="middle" x="319.55" y="-385.32" font-family="Times,serif" font-size="14.00">/aruco/pose</text>
</g>
<!-- CameraNode&#45;&gt;/aruco/pose -->
<g id="edge30" class="edge">
<title>CameraNode&#45;&gt;/aruco/pose</title>
<path fill="none" stroke="black" d="M142.44,-410.67C173.1,-407.07 211.93,-402.51 245.32,-398.6"/>
<polygon fill="black" stroke="black" points="245.38,-402.11 254.91,-397.47 244.57,-395.16 245.38,-402.11"/>
</g>
<!-- LidarOdometryNode -->
<g id="node9" class="node">
<title>LidarOdometryNode</title>
<polygon fill="none" stroke="black" points="626.36,-64 464.11,-64 464.11,-28 626.36,-28 626.36,-64"/>
<text xml:space="preserve" text-anchor="middle" x="545.23" y="-41.33" font-family="Times,serif" font-size="14.00">LidarOdometryNode</text>
</g>
<!-- MPU6050NodeRobust -->
<g id="node10" class="node">
<title>MPU6050NodeRobust</title>
<polygon fill="none" stroke="black" points="175,-41 0,-41 0,-5 175,-5 175,-41"/>
<text xml:space="preserve" text-anchor="middle" x="87.5" y="-18.32" font-family="Times,serif" font-size="14.00">MPU6050NodeRobust</text>
</g>
<!-- /imu/mpu6050 -->
<g id="node24" class="node">
<title>/imu/mpu6050</title>
<ellipse fill="none" stroke="black" cx="319.55" cy="-23" rx="83.83" ry="18"/>
<text xml:space="preserve" text-anchor="middle" x="319.55" y="-18.32" font-family="Times,serif" font-size="14.00">/imu/mpu6050</text>
</g>
<!-- MPU6050NodeRobust&#45;&gt;/imu/mpu6050 -->
<g id="edge33" class="edge">
<title>MPU6050NodeRobust&#45;&gt;/imu/mpu6050</title>
<path fill="none" stroke="black" d="M175.47,-23C191.39,-23 208.08,-23 224.2,-23"/>
<polygon fill="black" stroke="black" points="223.75,-26.5 233.75,-23 223.75,-19.5 223.75,-26.5"/>
</g>
<!-- ObstacleAvoidanceNode -->
<g id="node11" class="node">
<title>ObstacleAvoidanceNode</title>
<polygon fill="none" stroke="black" points="1489.38,-236 1300.88,-236 1300.88,-200 1489.38,-200 1489.38,-236"/>
<text xml:space="preserve" text-anchor="middle" x="1395.13" y="-213.32" font-family="Times,serif" font-size="14.00">ObstacleAvoidanceNode</text>
</g>
<!-- ObstacleAvoidanceNode&#45;&gt;/cmd_vel -->
<g id="edge5" class="edge">
<title>ObstacleAvoidanceNode&#45;&gt;/cmd_vel</title>
<path fill="none" stroke="black" d="M1488.02,-236.48C1504.9,-239.87 1522.07,-243.32 1537.57,-246.44"/>
<polygon fill="black" stroke="black" points="1536.55,-249.81 1547.05,-248.35 1537.93,-242.94 1536.55,-249.81"/>
</g>
<!-- ObstacleAvoidanceNode&#45;&gt;/obstacle_detected -->
<g id="edge14" class="edge">
<title>ObstacleAvoidanceNode&#45;&gt;/obstacle_detected</title>
<path fill="none" stroke="black" d="M1300.52,-217.4C1188.99,-216.69 1002.7,-215.5 882.56,-214.73"/>
<polygon fill="black" stroke="black" points="882.68,-211.23 872.66,-214.67 882.64,-218.23 882.68,-211.23"/>
</g>
<!-- SensorFusionNode -->
<g id="node12" class="node">
<title>SensorFusionNode</title>
<polygon fill="none" stroke="black" points="2293.04,-56 2142.04,-56 2142.04,-20 2293.04,-20 2293.04,-56"/>
<text xml:space="preserve" text-anchor="middle" x="2217.54" y="-33.33" font-family="Times,serif" font-size="14.00">SensorFusionNode</text>
</g>
<!-- ESP32SensorNode -->
<g id="node13" class="node">
<title>ESP32SensorNode</title>
<polygon fill="none" stroke="black" points="2293.04,-202 2142.04,-202 2142.04,-166 2293.04,-166 2293.04,-202"/>
<text xml:space="preserve" text-anchor="middle" x="2217.54" y="-179.32" font-family="Times,serif" font-size="14.00">ESP32SensorNode</text>
</g>
<!-- LidarNode -->
<g id="node14" class="node">
<title>LidarNode</title>
<polygon fill="none" stroke="black" points="133,-129 42,-129 42,-93 133,-93 133,-129"/>
<text xml:space="preserve" text-anchor="middle" x="87.5" y="-106.33" font-family="Times,serif" font-size="14.00">LidarNode</text>
</g>
<!-- /scan -->
<g id="node22" class="node">
<title>/scan</title>
<ellipse fill="none" stroke="black" cx="319.55" cy="-111" rx="37" ry="18"/>
<text xml:space="preserve" text-anchor="middle" x="319.55" y="-106.33" font-family="Times,serif" font-size="14.00">/scan</text>
</g>
<!-- LidarNode&#45;&gt;/scan -->
<g id="edge25" class="edge">
<title>LidarNode&#45;&gt;/scan</title>
<path fill="none" stroke="black" d="M133.4,-111C172.92,-111 230.28,-111 270.66,-111"/>
<polygon fill="black" stroke="black" points="270.58,-114.5 280.58,-111 270.58,-107.5 270.58,-114.5"/>
</g>
<!-- /cmd_vel&#45;&gt;ESP32BridgeNode -->
<g id="edge7" class="edge">
<title>/cmd_vel&#45;&gt;ESP32BridgeNode</title>
<path fill="none" stroke="black" d="M1639.58,-269.38C1656.71,-273.96 1677.06,-279.4 1696.76,-284.67"/>
<polygon fill="black" stroke="black" points="1695.59,-287.98 1706.15,-287.19 1697.4,-281.22 1695.59,-287.98"/>
</g>
<!-- /cmd_vel_teleop&#45;&gt;ObstacleAvoidanceNode -->
<g id="edge9" class="edge">
<title>/cmd_vel_teleop&#45;&gt;ObstacleAvoidanceNode</title>
<path fill="none" stroke="black" d="M1246.9,-240.87C1260.61,-238.74 1275.22,-236.47 1289.72,-234.22"/>
<polygon fill="black" stroke="black" points="1289.92,-237.73 1299.27,-232.73 1288.85,-230.81 1289.92,-237.73"/>
</g>
<!-- /camera_tilt&#45;&gt;ESP32BridgeNode -->
<g id="edge12" class="edge">
<title>/camera_tilt&#45;&gt;ESP32BridgeNode</title>
<path fill="none" stroke="black" d="M1666.42,-309.68C1674.4,-309.41 1682.6,-309.14 1690.76,-308.87"/>
<polygon fill="black" stroke="black" points="1690.85,-312.37 1700.73,-308.53 1690.61,-305.37 1690.85,-312.37"/>
</g>
<!-- /obstacle_detected&#45;&gt;CleanTeleopNode -->
<g id="edge15" class="edge">
<title>/obstacle_detected&#45;&gt;CleanTeleopNode</title>
<path fill="none" stroke="black" d="M821.42,-229.71C846.04,-236.91 875.61,-245.56 902.29,-253.36"/>
<polygon fill="black" stroke="black" points="901.1,-256.65 911.68,-256.1 903.06,-249.94 901.1,-256.65"/>
</g>
<!-- /esp32_telemetry&#45;&gt;SimpleAutonomousNode -->
<g id="edge17" class="edge">
<title>/esp32_telemetry&#45;&gt;SimpleAutonomousNode</title>
<path fill="none" stroke="black" d="M2037.01,-191.84C2069.48,-202.18 2112.3,-215.81 2147.97,-227.17"/>
<polygon fill="black" stroke="black" points="2146.76,-230.46 2157.35,-230.16 2148.89,-223.79 2146.76,-230.46"/>
</g>
<!-- /esp32_telemetry&#45;&gt;AutonomousFirebotNode -->
<g id="edge20" class="edge">
<title>/esp32_telemetry&#45;&gt;AutonomousFirebotNode</title>
<path fill="none" stroke="black" d="M2053.89,-162.63C2072.52,-158.9 2093.21,-154.74 2113.43,-150.69"/>
<polygon fill="black" stroke="black" points="2113.99,-154.14 2123.1,-148.75 2112.61,-147.28 2113.99,-154.14"/>
</g>
<!-- /esp32_telemetry&#45;&gt;SensorFusionNode -->
<g id="edge18" class="edge">
<title>/esp32_telemetry&#45;&gt;SensorFusionNode</title>
<path fill="none" stroke="black" d="M2016.3,-158.52C2056.83,-134.13 2130.51,-89.78 2176.31,-62.22"/>
<polygon fill="black" stroke="black" points="2177.86,-65.37 2184.62,-57.21 2174.25,-59.37 2177.86,-65.37"/>
</g>
<!-- /esp32_telemetry&#45;&gt;ESP32SensorNode -->
<g id="edge19" class="edge">
<title>/esp32_telemetry&#45;&gt;ESP32SensorNode</title>
<path fill="none" stroke="black" d="M2082.84,-179.33C2098.66,-179.89 2114.98,-180.46 2130.54,-181"/>
<polygon fill="black" stroke="black" points="2130.1,-184.49 2140.21,-181.34 2130.34,-177.49 2130.1,-184.49"/>
</g>
<!-- /water_pump&#45;&gt;ESP32BridgeNode -->
<g id="edge22" class="edge">
<title>/water_pump&#45;&gt;ESP32BridgeNode</title>
<path fill="none" stroke="black" d="M2401.93,-233.17C2380.21,-247.48 2346.94,-266.93 2314.79,-276 2160.43,-319.53 1971.42,-318.11 1863.98,-312.49"/>
<polygon fill="black" stroke="black" points="1864.26,-309 1854.08,-311.95 1863.87,-315.99 1864.26,-309"/>
</g>
<!-- /camera/image_raw&#45;&gt;VideoStreamerNode -->
<g id="edge24" class="edge">
<title>/camera/image_raw&#45;&gt;VideoStreamerNode</title>
<path fill="none" stroke="black" d="M428.46,-444C436.74,-444 445.04,-444 453.2,-444"/>
<polygon fill="black" stroke="black" points="453.09,-447.5 463.09,-444 453.09,-440.5 453.09,-447.5"/>
</g>
<!-- /scan&#45;&gt;SimpleAutonomousNode -->
<g id="edge26" class="edge">
<title>/scan&#45;&gt;SimpleAutonomousNode</title>
<path fill="none" stroke="black" d="M356.59,-113.58C432.32,-118.78 613.51,-130 765.7,-130 765.7,-130 765.7,-130 1597.05,-130 1730.47,-130 1757.28,-177.49 1888.23,-203 1961.91,-217.36 2045.73,-229.02 2110.23,-237.02"/>
<polygon fill="black" stroke="black" points="2109.78,-240.49 2120.13,-238.23 2110.63,-233.54 2109.78,-240.49"/>
</g>
<!-- /scan&#45;&gt;ArucoFollowerNode -->
<g id="edge27" class="edge">
<title>/scan&#45;&gt;ArucoFollowerNode</title>
<path fill="none" stroke="black" d="M349.34,-121.81C383.35,-134.58 440.83,-156.17 484.58,-172.6"/>
<polygon fill="black" stroke="black" points="483.09,-175.78 493.69,-176.02 485.55,-169.23 483.09,-175.78"/>
</g>
<!-- /scan&#45;&gt;AutonomousFirebotNode -->
<g id="edge29" class="edge">
<title>/scan&#45;&gt;AutonomousFirebotNode</title>
<path fill="none" stroke="black" d="M356.59,-108.42C432.32,-103.22 613.51,-92 765.7,-92 765.7,-92 765.7,-92 1778.48,-92 1891.47,-92 2020.24,-104.7 2108.77,-115.42"/>
<polygon fill="black" stroke="black" points="2108.33,-118.89 2118.68,-116.63 2109.18,-111.94 2108.33,-118.89"/>
</g>
<!-- /scan&#45;&gt;LidarOdometryNode -->
<g id="edge28" class="edge">
<title>/scan&#45;&gt;LidarOdometryNode</title>
<path fill="none" stroke="black" d="M351.66,-101.96C382.11,-93.11 429.68,-79.29 469.92,-67.6"/>
<polygon fill="black" stroke="black" points="470.7,-71.01 479.33,-64.86 468.75,-64.29 470.7,-71.01"/>
</g>
<!-- /aruco/pose&#45;&gt;SimpleAutonomousNode -->
<g id="edge31" class="edge">
<title>/aruco/pose&#45;&gt;SimpleAutonomousNode</title>
<path fill="none" stroke="black" d="M388.43,-390.99C475.71,-392.17 632,-394 765.7,-394 765.7,-394 765.7,-394 1778.48,-394 1931.05,-394 2099.06,-313.75 2175.1,-272.65"/>
<polygon fill="black" stroke="black" points="2176.35,-275.96 2183.44,-268.09 2172.99,-269.81 2176.35,-275.96"/>
</g>
<!-- /aruco/pose&#45;&gt;ArucoFollowerNode -->
<g id="edge32" class="edge">
<title>/aruco/pose&#45;&gt;ArucoFollowerNode</title>
<path fill="none" stroke="black" d="M340.4,-372.7C379.88,-338.28 468.41,-261.1 514.72,-220.72"/>
<polygon fill="black" stroke="black" points="516.75,-223.6 521.99,-214.39 512.15,-218.33 516.75,-223.6"/>
</g>
<!-- /imu/mpu6050&#45;&gt;LidarOdometryNode -->
<g id="edge34" class="edge">
<title>/imu/mpu6050&#45;&gt;LidarOdometryNode</title>
<path fill="none" stroke="black" d="M395.97,-30.75C414.12,-32.62 433.71,-34.64 452.51,-36.57"/>
<polygon fill="black" stroke="black" points="451.97,-40.03 462.28,-37.57 452.69,-33.07 451.97,-40.03"/>
</g>
<!-- /imu/mpu6050&#45;&gt;SensorFusionNode -->
<g id="edge35" class="edge">
<title>/imu/mpu6050&#45;&gt;SensorFusionNode</title>
<path fill="none" stroke="black" d="M398.49,-16.53C487.31,-9.73 636.86,0 765.7,0 765.7,0 765.7,0 1778.48,0 1901.16,0 2042.44,-14.97 2130.63,-26.12"/>
<polygon fill="black" stroke="black" points="2130.05,-29.58 2140.41,-27.37 2130.94,-22.63 2130.05,-29.58"/>
</g>
</g>
</svg>
